<?xml version="1.0" encoding="utf-8"?>
<!-- Generator: Adobe Illustrator 23.0.4, SVG Export Plug-In . SVG Version: 6.00 Build 0)  -->
<svg version="1.1" id="Layer_1" xmlns="http://www.w3.org/2000/svg" xmlns:xlink="http://www.w3.org/1999/xlink" x="0px" y="0px"
	 viewBox="0 0 1107.58 169.61" style="enable-background:new 0 0 1107.58 169.61;" xml:space="preserve">
<style type="text/css">
	.st0{fill:#3D3935;}
</style>
<g>
	<polygon class="st0" points="0.24,169.61 60.61,169.61 60.61,89.82 89.64,169.61 152.09,169.61 152.09,0 91.73,0 91.73,69.97
		65.62,0 0.24,0 	"/>
	<path class="st0" d="M271.78-1.04h-69.14c-27.57,0-40.31,10.65-40.31,36.14v95.04c0,30.29,11.28,40.73,40.31,40.73h69.14
		c30.29,0,41.98-9.4,41.98-40.73V35.09C313.76,8.36,300.81-1.04,271.78-1.04z M246.5,120.1c0,8.36-2.09,12.11-8.56,12.11
		c-6.06,0-8.36-3.76-8.36-12.11V49.5c0-8.36,2.3-12.32,8.36-12.32c6.06,0,8.56,3.97,8.56,12.32V120.1z"/>
	<path class="st0" d="M407.54,169.61h37.18l24.44-93.37v93.37h59.11V0h-83.97l-18.17,70.39L407.75,0h-83.76v169.61h58.9V76.24
		L407.54,169.61z"/>
	<polygon class="st0" points="579.55,169.61 639.92,169.61 639.92,89.82 668.95,169.61 731.4,169.61 731.4,0 671.04,0 671.04,69.97
		644.93,0 579.55,0 	"/>
	<path class="st0" d="M851.09-1.04h-69.14c-27.57,0-40.31,10.65-40.31,36.14v95.04c0,30.29,11.28,40.73,40.31,40.73h69.14
		c30.29,0,41.98-9.4,41.98-40.73V35.09C893.07,8.36,880.12-1.04,851.09-1.04z M825.81,120.1c0,8.36-2.09,12.11-8.56,12.11
		c-6.06,0-8.36-3.76-8.36-12.11V49.5c0-8.36,2.3-12.32,8.36-12.32c6.06,0,8.56,3.97,8.56,12.32V120.1z"/>
	<path class="st0" d="M986.85,169.61h37.18l24.44-93.37v93.37h59.11V0h-83.97l-18.17,70.39L987.06,0H903.3v169.61h58.9V76.24
		L986.85,169.61z"/>
</g>
</svg>
